HIERARCHY
ROOT Hips
{
  OFFSET 40.9192 92.6879 18.85
  CHANNELS 6 Xposition Yposition Zposition Zrotation Xrotation Yrotation
  JOINT LeftUpLeg
  {
    OFFSET 8.64259 1.95398 -2.38835
    CHANNELS 3 Zrotation Xrotation Yrotation
    JOINT LeftLeg
    {
      OFFSET 43.7702 0 0
      CHANNELS 3 Zrotation Xrotation Yrotation
      JOINT LeftFoot
      {
        OFFSET 40.6238 0 0
        CHANNELS 3 Zrotation Xrotation Yrotation
        JOINT LeftToeBase
        {
          OFFSET 12.7242 0 0
          CHANNELS 3 Zrotation Xrotation Yrotation
          End Site
          {
            OFFSET 0 0 0
          }
        }
      }
    }
  }
  JOINT RightUpLeg
  {
    OFFSET -8.2249 1.95398 -2.59336
    CHANNELS 3 Zrotation Xrotation Yrotation
    JOINT RightLeg
    {
      OFFSET 43.5653 0 0
      CHANNELS 3 Zrotation Xrotation Yrotation
      JOINT RightFoot
      {
        OFFSET 40.6238 0 0
        CHANNELS 3 Zrotation Xrotation Yrotation
        JOINT RightToeBase
        {
          OFFSET 12.7242 0 0
          CHANNELS 3 Zrotation Xrotation Yrotation
          End Site
          {
            OFFSET 0 0 0
          }
        }
      }
    }
  }
  JOINT Spine
  {
    OFFSET 0.165834 0.87714 6.61349
    CHANNELS 3 Zrotation Xrotation Yrotation
    JOINT Spine1
    {
      OFFSET 7.38963 1.71661e-005 0
      CHANNELS 3 Zrotation Xrotation Yrotation
      JOINT Spine2
      {
        OFFSET 11.9445 1.14441e-005 0
        CHANNELS 3 Zrotation Xrotation Yrotation
        JOINT Spine3
        {
          OFFSET 14.7254 4.19617e-005 0
          CHANNELS 3 Zrotation Xrotation Yrotation
          JOINT Spine4
          {
            OFFSET 10.9679 0 0
            CHANNELS 3 Zrotation Xrotation Yrotation
            JOINT RightShoulder
            {
              OFFSET 2.46616 -1.6653 3.69651
              CHANNELS 3 Zrotation Xrotation Yrotation
              JOINT RightArm
              {
                OFFSET 13.0012 0 0
                CHANNELS 3 Zrotation Xrotation Yrotation
                JOINT RightForeArm
                {
                  OFFSET 28.7848 1.52588e-005 0
                  CHANNELS 3 Zrotation Xrotation Yrotation
                  JOINT RightHand
                  {
                    OFFSET 26.5688 1.52588e-005 0
                    CHANNELS 3 Zrotation Xrotation Yrotation
                    End Site
                    {
                      OFFSET 0 0 0
                    }
                  }
                }
              }
            }
            JOINT LeftShoulder
            {
              OFFSET 2.38034 -1.29275 -3.7523
              CHANNELS 3 Zrotation Xrotation Yrotation
              JOINT LeftArm
              {
                OFFSET 16.3182 6.10351e-005 0
                CHANNELS 3 Zrotation Xrotation Yrotation
                JOINT LeftForeArm
                {
                  OFFSET 27.0901 0 0
                  CHANNELS 3 Zrotation Xrotation Yrotation
                  JOINT LeftHand
                  {
                    OFFSET 24.5451 1.52588e-005 0
                    CHANNELS 3 Zrotation Xrotation Yrotation
                    End Site
                    {
                      OFFSET 0 0 0
                    }
                  }
                }
              }
            }
            JOINT Neck
            {
              OFFSET 5.0226 -0.0266342 0
              CHANNELS 3 Zrotation Xrotation Yrotation
              JOINT Head
              {
                OFFSET 6.69363 2.86102e-005 0
                CHANNELS 3 Zrotation Xrotation Yrotation
                End Site
                {
                  OFFSET 0 0 0
                }
              }
            }
          }
        }
      }
    }
  }
}
MOTION
Frames:	9
Frame Time:	0.0416667
-54.0611 59.8515 -338.514 -49.3834 64.2418 50.7235 84.1331 8.86889 -159.195 -174.698 -0.329557 88.3313 82.5374 40.0381 25.6062 -171.585 22.9155 -71.9939 -31.0535 -34.1702 -128.96 -95.5161 7.37542 45.5079 119.463 -22.9641 3.24586 168.132 -33.954 -21.3455 1.57106 -1.44043 -102.327 28.6178 -4.51837 -24.485 16.7308 -5.55993 -24.2824 -3.99127 2.81073 -24.7238 16.0214 2.81074 -24.7238 106.872 -64.0061 -75.7423 120.361 33.7012 0.0607126 177.091 -14.6675 -30.0735 -0.0628803 -7.43257 -58.6911 10.5185 -40.5229 -145.03 78.8113 24.0901 -100.124 -9.05892 40.7808 -53.4573 1.40671 3.05021 75.0795 93.0412 -1.01666 -51.8421 -171.255 -62.4559 49.3088 
-54.0782 59.7272 -338.653 -49.3339 64.1366 50.6063 86.8053 7.68355 -159.67 -174.083 -0.380637 88.0182 83.0564 40.0806 27.6114 -171.443 23.0786 -71.9752 -30.8048 -34.2164 -128.623 -95.7403 7.28893 45.2882 119.988 -23.1812 3.23907 168.069 -33.9147 -21.3496 1.5597 -1.40425 -102.37 28.5358 -4.55593 -24.5593 16.6475 -5.60043 -24.3552 -4.0634 2.79488 -24.8054 15.9492 2.79489 -24.8054 106.266 -63.8011 -76.5291 120.28 33.9116 0.0872433 176.955 -14.9414 -30.1154 0.0526912 -7.48669 -58.5875 9.94942 -39.9927 -145.189 78.252 24.2734 -100.454 -9.08101 41.2759 -53.3891 1.63814 3.23008 74.8711 89.4453 -3.57702 -52.378 -170.155 -62.9324 47.1152 
-54.1269 59.3753 -339.045 -49.1954 63.8386 50.2665 93.9997 4.43582 -160.705 -172.985 -0.526325 87.1449 83.8742 40.0413 33.8462 -171.029 23.566 -71.9202 -30.0589 -34.3253 -127.618 -96.3415 7.05766 44.6551 121.542 -23.8322 3.23063 167.863 -33.737 -21.3391 1.52581 -1.30224 -102.489 28.3041 -4.66504 -24.7671 16.4125 -5.71777 -24.5588 -4.2673 2.74659 -25.0348 15.7453 2.74658 -25.0348 104.609 -63.2127 -78.7006 120.042 34.5232 0.159722 176.529 -15.7642 -30.2468 0.401555 -7.65119 -58.2941 8.30069 -38.4546 -145.639 76.6193 24.8733 -101.39 -9.17105 42.7276 -53.1781 2.2987 3.73567 74.2601 179.444 37.9343 -88.1079 164.562 -47.8108 90.9361 
-54.2027 58.8302 -339.644 -48.9827 63.3763 49.7155 104.298 0.076689 -161.561 -173.799 -0.831656 85.9831 82.9245 39.5555 46.1653 -170.341 24.4095 -71.8285 -28.7838 -34.414 -125.916 -97.1449 6.74057 43.6463 124.168 -24.9655 3.26564 167.434 -33.2342 -21.2514 1.46791 -1.14686 -102.667 27.9507 -4.8401 -25.0737 16.0541 -5.90494 -24.8586 -4.57919 2.66153 -25.3769 15.4335 2.66154 -25.3769 102.238 -62.3074 -81.8593 119.643 35.4982 0.273775 175.726 -17.2059 -30.4968 1.01145 -7.94219 -57.8468 5.67593 -36.0013 -146.322 73.9966 26.0366 -102.809 -9.38221 45.0919 -52.8089 3.33698 4.50417 73.258 -87.9113 -1.21578 -127.155 111.834 -25.5007 99.265 
-54.3017 58.1257 -340.408 -48.7087 62.7793 48.9534 113.67 -8.92173 -161.904 -161.413 3.48108 82.5035 91.6348 40.0198 38.7008 -169.33 25.7078 -71.6975 -26.9284 -34.3385 -123.46 -97.8669 6.39315 42.2952 128.071 -26.7278 3.46482 166.558 -32.1053 -21.0095 1.39508 -0.905217 -102.937 27.4038 -5.07383 -25.5481 15.4993 -6.15738 -25.3241 -5.06137 2.56518 -25.8958 14.9513 2.56517 -25.8958 98.9111 -60.8115 -86.4155 119.098 36.8584 0.475562 174.357 -19.4554 -30.9371 1.94924 -8.39659 -57.3051 2.02065 -32.3463 -147.037 70.1271 28.1576 -104.687 -9.80289 48.4345 -52.1959 4.70175 5.46349 71.8706 -91.758 -0.110603 -123.998 112.673 -30.5069 99.1454 
-54.4224 57.2685 -341.301 -48.3837 62.0759 47.9714 120.331 -22.7642 -161.532 -156.233 15.3599 74.8582 92.4086 41.2072 36.8213 -167.888 27.6504 -71.5299 -24.4852 -33.8856 -120.251 -98.0871 5.99389 40.6233 133.771 -29.4321 4.13474 164.686 -29.9863 -20.5837 1.17083 -0.398769 -103.678 26.1723 -5.77961 -26.8509 14.246 -6.91458 -26.6004 -6.11587 2.24332 -27.3353 13.8968 2.24332 -27.3353 91.8806 -57.4289 -96.7209 117.556 41.0231 1.50919 172.143 -22.5775 -31.578 3.33706 -9.07731 -56.759 -8.25623 -22.478 -148.594 60.1318 37.972 -106.914 -11.5131 57.171 -49.99 6.12417 6.39251 70.232 -94.8414 -5.97677 -119.046 110.024 -35.9688 98.4759 
-54.5707 56.1957 -342.297 -48.0155 61.2938 46.7526 126.769 -35.0113 -160.574 -156.573 26.5907 67.7335 87.5553 42.3545 43.6384 -165.842 30.5719 -71.344 -21.5942 -32.7476 -116.473 -97.1076 5.30579 38.618 142.645 -33.7201 6.17092 160.431 -26.6019 -20.1362 0.242807 0.824877 -105.878 23.0767 -8.41764 -30.6939 11.0835 -9.69867 -30.3473 -8.6149 0.691877 -31.7121 11.3978 0.691895 -31.7121 80.852 -47.0769 -115.71 109.317 56.3926 7.48962 168.766 -26.2522 -32.1088 5.38532 -10.086 -56.378 -42.533 8.93054 -148.767 -2.8786 74.5679 -65.6727 -34.2779 87.9873 -30.7779 6.7781 6.70175 68.7804 -103.45 -21.153 -102.465 105.105 -45.4095 97.6019 
-54.7999 54.7498 -343.353 -47.6091 60.4602 45.273 132.221 -44.7365 -159.895 -156.158 35.501 60.9733 83.0996 43.0579 49.8477 -162.933 35.1036 -71.1916 -18.7909 -30.5412 -112.905 -92.3598 1.89494 36.0955 158.451 -42.6314 12.4164 149.894 -22.5258 -20.6826 -0.210962 1.71351 -108.34 19.6284 -10.0922 -35.3615 7.46771 -11.5093 -34.9624 -10.6024 -0.106756 -36.6523 9.41025 -0.106776 -36.6523 82.546 -44.4714 -115.358 109.549 53.871 4.93898 161.275 -35.1083 -35.5207 8.1683 -11.557 -57.0068 -47.0355 20.4293 -158.594 -69.7179 81.2249 0.130651 147.543 64.6748 149.649 8.56688 7.66835 66.403 -100.134 -17.1158 -93.5434 105.022 -52.9669 99.1316 
-55.2886 53.089 -344.318 -47.1704 59.5996 43.5094 135.797 -51.6858 -160.589 -155.35 41.7686 54.6384 78.9301 43.0525 55.3 -158.79 42.4893 -71.2302 -17.0636 -28.0922 -111.365 -82.0561 -7.36579 33.2915 -163.585 -54.9493 39.8935 125.021 -20.9182 -27.3872 3.89973 0.104138 -74.3185 23.8836 16.3639 28.1848 12.0219 17.5422 27.5047 -8.33385 7.61469 31.4333 11.6788 7.6147 31.4333 41.8586 -16.6738 164.989 -2.87056 37.9778 123.206 148.177 -44.3835 -41.0148 11.5356 -13.4148 -59.7187 -97.3037 13.0223 6.03958 -119.36 -33.142 -76.5071 56.077 -71.8654 -9.51976 9.41719 7.33158 59.8992 25.0986 -33.577 90.9918 7.89586 -60.9891 27.8246 
